<svg width="528" height="304" viewBox="0 0 528 304" fill="none" xmlns="http://www.w3.org/2000/svg">
    <g clip-path="url(#2y744krnia)">
        <path d="M114.403 269.847c15.165 0 27.459-12.319 27.459-27.515 0-15.197-12.294-27.516-27.459-27.516s-27.459 12.319-27.459 27.516c0 15.196 12.294 27.515 27.459 27.515z" fill="#F2F2F2"/>
        <path d="M118.868 265.82c15.165 0 27.459-12.319 27.459-27.515s-12.294-27.515-27.459-27.515-27.46 12.319-27.46 27.515 12.295 27.515 27.46 27.515z" fill="#1FBCFD"/>
        <path d="M480.724 207.86H140.982v.929h339.742v-.929zM316.934 8.663H196.347v-2.49h-54.679v2.49H20.584a8.143 8.143 0 0 0-5.768 2.394 8.173 8.173 0 0 0-2.389 5.78v165.459c0 2.168.86 4.247 2.39 5.78a8.148 8.148 0 0 0 5.767 2.394h296.35a8.146 8.146 0 0 0 5.768-2.394 8.182 8.182 0 0 0 2.389-5.78V16.836a8.187 8.187 0 0 0-2.389-5.78 8.146 8.146 0 0 0-5.768-2.393z" fill="#08589C"/>
        <path d="M314.156 23.108H23.363V187.48h290.793V23.108zM168.511 18.625a2.985 2.985 0 0 0 2.982-2.989 2.985 2.985 0 0 0-2.982-2.988 2.985 2.985 0 0 0-2.983 2.988 2.986 2.986 0 0 0 2.983 2.989z" fill="#1FBCFD"/>
        <path opacity=".1" d="M230.994 187.482H23.363V23.108l207.631 164.374z" fill="#000"/>
        <path d="M68.863 175.181c15.438 0 27.952-12.54 27.952-28.009 0-15.469-12.514-28.009-27.952-28.009-15.437 0-27.952 12.54-27.952 28.009 0 15.469 12.515 28.009 27.952 28.009z" fill="#F2F2F2"/>
        <path d="M263.524 111.756h-27.163v5.687h27.163v-5.687zM296.363 67.474h-92.842v2.438h92.842v-2.438zM296.363 75.193h-92.842v2.438h92.842v-2.438zM296.363 82.912h-92.842v2.437h92.842v-2.437zM296.363 90.63h-92.842v2.438h92.842v-2.437zM296.363 98.35h-92.842v2.437h92.842v-2.438z" fill="#08589C"/>
        <path d="M296.363 26.443h-11.352v11.375h11.352V26.443z" fill="#F2F2F2"/>
        <path d="M301.633 43.1h-13.784V29.285h13.784V43.1zm-13.185-.602h12.586V29.887h-12.586v12.611zM333.256 184.493h-28.379v-2.049a.417.417 0 0 0-.119-.287.392.392 0 0 0-.132-.088.39.39 0 0 0-.155-.031h-9.73a.394.394 0 0 0-.286.119.398.398 0 0 0-.119.287v2.049h-6.082v-2.049a.416.416 0 0 0-.03-.156.42.42 0 0 0-.22-.219.394.394 0 0 0-.155-.031h-9.73a.402.402 0 0 0-.406.406v2.049h-6.081v-2.049a.398.398 0 0 0-.119-.287.394.394 0 0 0-.286-.119h-9.73a.39.39 0 0 0-.155.031.392.392 0 0 0-.132.088.417.417 0 0 0-.119.287v2.049h-6.081v-2.049a.417.417 0 0 0-.119-.287.398.398 0 0 0-.287-.119h-9.73a.394.394 0 0 0-.286.119.398.398 0 0 0-.119.287v2.049h-6.081v-2.049a.417.417 0 0 0-.119-.287.392.392 0 0 0-.132-.088.394.394 0 0 0-.155-.031h-9.73a.402.402 0 0 0-.405.406v2.049h-6.082v-2.049a.416.416 0 0 0-.03-.156.42.42 0 0 0-.22-.219.394.394 0 0 0-.155-.031h-9.73a.402.402 0 0 0-.406.406v2.049h-6.081v-2.049a.398.398 0 0 0-.119-.287.394.394 0 0 0-.286-.119h-76.219a.398.398 0 0 0-.287.119.417.417 0 0 0-.119.287v2.049h-6.081v-2.049a.417.417 0 0 0-.119-.287.392.392 0 0 0-.132-.088.39.39 0 0 0-.155-.031h-9.73a.394.394 0 0 0-.286.119.398.398 0 0 0-.119.287v2.049h-6.082v-2.049a.398.398 0 0 0-.25-.375.394.394 0 0 0-.155-.031h-9.73a.394.394 0 0 0-.287.119.398.398 0 0 0-.118.287v2.049h-6.082v-2.049a.411.411 0 0 0-.119-.287.396.396 0 0 0-.286-.119h-9.73a.395.395 0 0 0-.287.119.4.4 0 0 0-.119.287v2.049h-6.081v-2.049a.41.41 0 0 0-.25-.375.394.394 0 0 0-.155-.031h-9.73a.394.394 0 0 0-.287.119.396.396 0 0 0-.119.287v2.049h-6.081v-2.049a.41.41 0 0 0-.25-.375.394.394 0 0 0-.156-.031h-9.73a.394.394 0 0 0-.286.119.398.398 0 0 0-.12.287v2.049h-6.08v-2.049a.411.411 0 0 0-.12-.287.396.396 0 0 0-.286-.119h-9.73a.394.394 0 0 0-.287.119.4.4 0 0 0-.119.287v2.049H9.73a9.718 9.718 0 0 0-6.88 2.856A9.758 9.758 0 0 0 0 194.243v4.409a9.762 9.762 0 0 0 2.85 6.894 9.722 9.722 0 0 0 6.88 2.856h323.526a9.72 9.72 0 0 0 6.88-2.856 9.76 9.76 0 0 0 2.85-6.894v-4.409a9.757 9.757 0 0 0-2.85-6.894 9.716 9.716 0 0 0-6.88-2.856zM75.63 164.666a35.171 35.171 0 0 1-19.571-5.949 35.278 35.278 0 0 1-12.974-15.841 35.364 35.364 0 0 1-2.005-20.394 35.319 35.319 0 0 1 9.64-18.073 35.203 35.203 0 0 1 18.037-9.66 35.16 35.16 0 0 1 20.352 2.008 35.236 35.236 0 0 1 15.809 13.001 35.347 35.347 0 0 1 5.937 19.61 35.375 35.375 0 0 1-10.329 24.948 35.229 35.229 0 0 1-24.897 10.35zm0-69.667a34.245 34.245 0 0 0-19.056 5.793 34.35 34.35 0 0 0-12.633 15.424 34.433 34.433 0 0 0-1.951 19.857 34.394 34.394 0 0 0 9.386 17.598 34.28 34.28 0 0 0 17.562 9.406 34.237 34.237 0 0 0 19.817-1.956 34.305 34.305 0 0 0 15.392-12.658 34.419 34.419 0 0 0 5.781-19.095 34.44 34.44 0 0 0-10.057-24.291 34.302 34.302 0 0 0-24.242-10.078zM389.879 15.115H271.688v.929h118.191v-.93zM528 260.342H188.258v.929H528v-.929zM207.493 303.071H89.303V304h118.19v-.929z" fill="#08589C"/>
        <path d="M231.284 255.445h-12.978v13.005h12.978v-13.005z" fill="#1FBCFD"/>
        <path d="M239.163 261.019h-15.758v-15.791h15.758v15.791zm-15.073-.687h14.388v-14.418H224.09v14.418z" fill="#08589C"/>
        <path d="M381.92 10.218h-12.978v13.004h12.978V10.218z" fill="#1FBCFD"/>
        <path d="M389.799 15.791h-15.758V0h15.758v15.791zm-15.073-.686h14.388V.687h-14.388v14.418z" fill="#08589C"/>
        <path d="M512.625 255.445h-12.978v13.005h12.978v-13.005z" fill="#1FBCFD"/>
        <path d="M520.505 261.019h-15.759v-15.791h15.759v15.791zm-15.074-.687h14.389v-14.418h-14.389v14.418zM489.994 107.732h-1.103V77.468a17.538 17.538 0 0 0-5.12-12.386 17.475 17.475 0 0 0-12.36-5.13h-63.987a17.452 17.452 0 0 0-12.361 5.13 17.53 17.53 0 0 0-5.119 12.386v166.031a17.538 17.538 0 0 0 5.119 12.386 17.456 17.456 0 0 0 12.361 5.13h63.987a17.455 17.455 0 0 0 12.36-5.13 17.537 17.537 0 0 0 5.12-12.386V129.275h1.103v-21.543z" fill="#08589C"/>
        <path d="M485.169 78.498v165.788c0 3.469-1.375 6.797-3.822 9.251a13.046 13.046 0 0 1-9.23 3.833h-64.296a13.046 13.046 0 0 1-9.231-3.833 13.098 13.098 0 0 1-3.821-9.251V78.498a13.09 13.09 0 0 1 3.823-9.248 13.039 13.039 0 0 1 9.229-3.831h7.8a6.223 6.223 0 0 0 2.827 7.83c.898.479 1.899.73 2.916.73h36.658a6.188 6.188 0 0 0 5.146-2.748 6.216 6.216 0 0 0 .596-5.812h8.353c3.461 0 6.781 1.378 9.228 3.83a13.096 13.096 0 0 1 3.824 9.249z" fill="#1FBCFD"/>
        <path d="M449.545 174.733h-19.153v5.687h19.153v-5.687zM472.701 130.451h-65.464v2.438h65.464v-2.438zM472.701 138.17h-65.464v2.438h65.464v-2.438zM472.701 145.889h-65.464v2.437h65.464v-2.437zM472.701 153.608h-65.464v2.437h65.464v-2.437zM472.701 161.326h-65.464v2.438h65.464v-2.438z" fill="#08589C"/>
        <path d="M442.255 98.081h-11.351v11.375h11.351V98.081z" fill="#F2F2F2"/>
        <path d="M435.249 100.926v13.812h13.785v-13.812h-13.785zm13.187 13.213h-12.589v-12.614h12.589v12.614z" fill="#08589C"/>
        <path opacity=".1" d="M485.169 226.581v17.705c0 3.47-1.375 6.797-3.822 9.251a13.046 13.046 0 0 1-9.23 3.833h-64.296a13.046 13.046 0 0 1-9.231-3.833 13.096 13.096 0 0 1-3.821-9.251v-89.271l54.168 42.882.927.734 10.077 7.975.94.747 24.288 19.228z" fill="#000"/>
        <path d="M434.407 251.997c11.229 0 20.332-9.122 20.332-20.375 0-11.252-9.103-20.374-20.332-20.374-11.23 0-20.333 9.122-20.333 20.374 0 11.253 9.103 20.375 20.333 20.375z" fill="#F2F2F2"/>
        <path d="M148.398 304a40.264 40.264 0 0 1-22.403-6.81 40.388 40.388 0 0 1-14.852-18.134 40.483 40.483 0 0 1-2.294-23.346 40.428 40.428 0 0 1 11.035-20.689 40.3 40.3 0 0 1 20.647-11.058 40.25 40.25 0 0 1 23.298 2.299 40.348 40.348 0 0 1 18.097 14.882 40.465 40.465 0 0 1 6.796 22.449 40.493 40.493 0 0 1-11.824 28.559 40.328 40.328 0 0 1-28.5 11.848zm0-79.885a39.34 39.34 0 0 0-21.888 6.654A39.453 39.453 0 0 0 112 248.486a39.552 39.552 0 0 0-2.242 22.809 39.499 39.499 0 0 0 10.782 20.213 39.382 39.382 0 0 0 20.172 10.805 39.322 39.322 0 0 0 22.762-2.247 39.415 39.415 0 0 0 17.681-14.54 39.537 39.537 0 0 0 6.64-21.933 39.565 39.565 0 0 0-11.552-27.902 39.402 39.402 0 0 0-27.845-11.576zM440.4 247.338a25.462 25.462 0 0 1-14.163-4.305 25.536 25.536 0 0 1-9.389-11.464 25.603 25.603 0 0 1-1.451-14.759 25.566 25.566 0 0 1 6.977-13.08 25.453 25.453 0 0 1 27.781-5.537 25.506 25.506 0 0 1 11.441 9.408 25.584 25.584 0 0 1 4.296 14.192 25.6 25.6 0 0 1-7.475 18.054 25.497 25.497 0 0 1-18.017 7.491zm0-50.161a24.529 24.529 0 0 0-13.648 4.149 24.609 24.609 0 0 0-9.048 11.047 24.671 24.671 0 0 0-1.398 14.222 24.639 24.639 0 0 0 6.723 12.604 24.552 24.552 0 0 0 12.578 6.737c4.765.95 9.705.462 14.193-1.401a24.574 24.574 0 0 0 11.025-9.066 24.653 24.653 0 0 0 4.14-13.676 24.67 24.67 0 0 0-7.203-17.398 24.572 24.572 0 0 0-17.362-7.218z" fill="#08589C"/>
    </g>
    <defs>
        <clipPath id="2y744krnia">
            <path fill="#fff" d="M0 0h528v304H0z"/>
        </clipPath>
    </defs>
</svg>
