<svg width="16" height="16" viewBox="0 0 16 16" fill="none" xmlns="http://www.w3.org/2000/svg">
    <mask id="a" style="mask-type:alpha" maskUnits="userSpaceOnUse" x="0" y="0" width="16" height="16">
        <path fill-rule="evenodd" clip-rule="evenodd" d="M15.814 6.545H8.186v3.091h4.39c-.409 1.964-2.12 3.091-4.39 3.091-2.679 0-4.837-2.109-4.837-4.727 0-2.618 2.158-4.727 4.837-4.727A4.8 4.8 0 0 1 11.2 4.327L13.581 2a8.258 8.258 0 0 0-5.395-2C3.646 0 0 3.564 0 8s3.647 8 8.186 8C12.28 16 16 13.09 16 8c0-.473-.074-.982-.186-1.455z" fill="#fff"/>
    </mask>
    <g mask="url(#a)">
        <path d="M-.744 12.727V3.273L5.58 8l-6.325 4.727z" fill="#FBBC05"/>
    </g>
    <mask id="b" style="mask-type:alpha" maskUnits="userSpaceOnUse" x="0" y="0" width="16" height="16">
        <path fill-rule="evenodd" clip-rule="evenodd" d="M15.814 6.545H8.186v3.091h4.39c-.409 1.964-2.12 3.091-4.39 3.091-2.679 0-4.837-2.109-4.837-4.727 0-2.618 2.158-4.727 4.837-4.727A4.8 4.8 0 0 1 11.2 4.327L13.581 2a8.258 8.258 0 0 0-5.395-2C3.646 0 0 3.564 0 8s3.647 8 8.186 8C12.28 16 16 13.09 16 8c0-.473-.074-.982-.186-1.455z" fill="#fff"/>
    </mask>
    <g mask="url(#b)">
        <path d="M-.744 3.273 5.58 8l2.605-2.218 8.93-1.418V-.727H-.744v4z" fill="#EA4335"/>
    </g>
    <mask id="c" style="mask-type:alpha" maskUnits="userSpaceOnUse" x="0" y="0" width="16" height="16">
        <path fill-rule="evenodd" clip-rule="evenodd" d="M15.814 6.545H8.186v3.091h4.39c-.409 1.964-2.12 3.091-4.39 3.091-2.679 0-4.837-2.109-4.837-4.727 0-2.618 2.158-4.727 4.837-4.727A4.8 4.8 0 0 1 11.2 4.327L13.581 2a8.258 8.258 0 0 0-5.395-2C3.646 0 0 3.564 0 8s3.647 8 8.186 8C12.28 16 16 13.09 16 8c0-.473-.074-.982-.186-1.455z" fill="#fff"/>
    </mask>
    <g mask="url(#c)">
        <path d="m-.744 12.727 11.163-8.363 2.94.363 3.757-5.454v17.454H-.744v-4z" fill="#34A853"/>
    </g>
    <mask id="d" style="mask-type:alpha" maskUnits="userSpaceOnUse" x="0" y="0" width="16" height="16">
        <path fill-rule="evenodd" clip-rule="evenodd" d="M15.814 6.545H8.186v3.091h4.39c-.409 1.964-2.12 3.091-4.39 3.091-2.679 0-4.837-2.109-4.837-4.727 0-2.618 2.158-4.727 4.837-4.727A4.8 4.8 0 0 1 11.2 4.327L13.581 2a8.258 8.258 0 0 0-5.395-2C3.646 0 0 3.564 0 8s3.647 8 8.186 8C12.28 16 16 13.09 16 8c0-.473-.074-.982-.186-1.455z" fill="#fff"/>
    </mask>
    <g mask="url(#d)">
        <path d="M17.116 16.727 5.581 8 4.093 6.91l13.023-3.637v13.454z" fill="#4285F4"/>
    </g>
</svg>
